<svg width="273" height="125" viewBox="0 0 273 125" fill="none" xmlns="http://www.w3.org/2000/svg">
<g clip-path="url(#clip0_233_707)">
<g clip-path="url(#clip1_233_707)">
<path d="M65.7723 98.5101C45.8649 98.5101 29.7289 82.3891 29.7289 62.4998C29.7289 42.6105 45.8649 26.4897 65.7723 26.4897C85.6799 26.4897 101.816 42.6105 101.816 62.4998C101.816 82.3891 85.6799 98.5101 65.7723 98.5101ZM127.737 53.3913L121.099 32.9718C119.176 27.0575 115.423 21.898 110.384 18.2421L92.9987 5.62102C87.9593 1.9651 81.8895 -0.00634766 75.6636 -0.00634766H54.1763C47.9504 -0.00634766 41.8806 1.9651 36.8414 5.62102L19.4566 18.2421C14.4172 21.898 10.6705 27.0575 8.74093 32.9718L2.10924 53.3913C0.185917 59.3118 0.185917 65.6816 2.10924 71.6021L8.7472 92.0218C10.6705 97.936 14.4235 103.096 19.4628 106.752L36.8477 119.373C41.8868 123.028 47.9566 125 54.1826 125H75.6698C81.8958 125 87.9656 123.028 93.0049 119.373L110.39 106.752C115.429 103.096 119.176 97.936 121.105 92.0218L127.743 71.6021C129.667 65.6879 129.667 59.3118 127.743 53.3913" fill="#292929"/>
<path d="M151.779 40.8579C148.587 40.8579 146.065 39.9719 144.204 38.194C142.337 36.4158 141.406 33.8766 141.406 30.5701V24.3937C141.406 21.0872 142.337 18.548 144.204 16.7699C146.065 14.9919 148.594 14.106 151.779 14.106C154.963 14.106 157.386 14.9731 159.116 16.6951C160.846 18.4232 161.707 20.7939 161.707 23.8072V24.0256H156.924V23.6575C156.924 22.1415 156.499 20.8875 155.657 19.908C154.807 18.9285 153.515 18.4419 151.779 18.4419C150.043 18.4419 148.713 18.966 147.732 20.0203C146.752 21.0747 146.265 22.5096 146.265 24.3188V30.6387C146.265 32.4292 146.758 33.8517 147.732 34.9185C148.713 35.9854 150.062 36.5156 151.779 36.5156C153.496 36.5156 154.813 36.0228 155.657 35.0308C156.499 34.0388 156.924 32.7973 156.924 31.3V30.6387H161.707V31.1503C161.707 34.1636 160.84 36.5344 159.116 38.2626C157.386 39.9906 154.945 40.8516 151.779 40.8516" fill="#292929"/>
<path d="M170.281 30.2016H177.194L174.065 17.6742H173.403L170.275 30.2016H170.281ZM162.738 40.3396L169.507 14.6172H177.962L184.731 40.3396H179.729L178.331 34.6811H169.139L167.74 40.3396H162.738Z" fill="#292929"/>
<path d="M192.2 26.2339H198.013C199.162 26.2339 200.068 25.922 200.717 25.2981C201.367 24.6742 201.691 23.8445 201.691 22.8151V22.447C201.691 21.4176 201.373 20.5941 200.736 19.9639C200.099 19.3401 199.193 19.0281 198.013 19.0281H192.2V26.2277V26.2339ZM187.341 40.3397V14.6235H198.519C200.136 14.6235 201.548 14.9043 202.747 15.4658C203.945 16.0273 204.882 16.8258 205.544 17.8552C206.206 18.8846 206.537 20.0949 206.537 21.4925V21.9354C206.537 23.4764 206.169 24.7241 205.432 25.6849C204.695 26.6394 203.79 27.3382 202.709 27.7749V28.4362C203.69 28.4861 204.451 28.823 204.988 29.4469C205.525 30.0708 205.8 30.9005 205.8 31.9299V40.3459H200.942V32.6286C200.942 32.0422 200.786 31.5618 200.486 31.1937C200.18 30.8256 199.668 30.6447 198.963 30.6447H192.193V40.3459H187.341V40.3397Z" fill="#292929"/>
<path d="M210.078 40.3397V14.6235H219.313L224.421 37.0332H225.083V14.6235H229.867V40.3397H220.637L215.523 17.9301H214.861V40.3397H210.078Z" fill="#292929"/>
<path d="M234.231 40.3397V14.6235H250.786V19.0281H239.09V25.1671H249.756V29.5779H239.09V35.9352H251.004V40.3397H234.231Z" fill="#292929"/>
<path d="M262.919 40.8579C260.933 40.8579 259.179 40.5023 257.661 39.7911C256.144 39.0796 254.951 38.0628 254.096 36.7402C253.234 35.4176 252.809 33.8267 252.809 31.9613V30.9319H257.592V31.9613C257.592 33.5023 258.073 34.6627 259.022 35.4363C259.978 36.2099 261.277 36.5967 262.925 36.5967C264.574 36.5967 265.835 36.2661 266.66 35.6048C267.484 34.9435 267.89 34.095 267.89 33.0656C267.89 32.3544 267.684 31.7804 267.284 31.3374C266.878 30.8945 266.291 30.5326 265.517 30.2519C264.749 29.9712 263.806 29.7091 262.707 29.4658L261.858 29.2849C260.09 28.8918 258.579 28.399 257.318 27.7938C256.056 27.1949 255.088 26.4026 254.414 25.4231C253.74 24.4436 253.402 23.1709 253.402 21.5987C253.402 20.0266 253.777 18.6915 254.526 17.5747C255.276 16.458 256.331 15.6033 257.692 15.0043C259.054 14.4054 260.652 14.106 262.494 14.106C264.337 14.106 265.966 14.4179 267.403 15.0418C268.839 15.6657 269.963 16.5953 270.787 17.8367C271.605 19.072 272.017 20.6255 272.017 22.4846V23.5889H267.234V22.4846C267.234 21.5051 267.041 20.7128 266.66 20.1139C266.278 19.515 265.735 19.072 265.024 18.7913C264.312 18.5105 263.469 18.3671 262.488 18.3671C261.014 18.3671 259.934 18.6415 259.235 19.1968C258.535 19.7458 258.186 20.5007 258.186 21.4552C258.186 22.0916 258.354 22.6344 258.685 23.0711C259.016 23.5078 259.516 23.8759 260.178 24.1691C260.84 24.4623 261.683 24.7181 262.713 24.9427L263.556 25.1236C265.392 25.5167 266.997 26.0158 268.358 26.6272C269.719 27.2386 270.775 28.0496 271.537 29.0541C272.298 30.0585 272.679 31.3437 272.679 32.9096C272.679 34.4756 272.28 35.8543 271.48 37.0459C270.687 38.2376 269.557 39.1672 268.096 39.8348C266.635 40.5085 264.917 40.8454 262.932 40.8454" fill="#292929"/>
<path d="M151.154 76.1317C149.168 76.1317 147.414 75.7761 145.896 75.065C144.379 74.3539 143.186 73.337 142.331 72.0144C141.469 70.6915 141.044 69.1009 141.044 67.2355V66.2061H145.827V67.2355C145.827 68.7765 146.308 69.9367 147.257 70.7105C148.213 71.484 149.512 71.8707 151.16 71.8707C152.809 71.8707 154.07 71.5401 154.894 70.8788C155.719 70.2175 156.125 69.3689 156.125 68.3396C156.125 67.6284 155.919 67.0544 155.519 66.6116C155.113 66.1684 154.526 65.8066 153.752 65.5258C152.984 65.2454 152.041 64.9833 150.942 64.7399L150.099 64.5588C148.331 64.1658 146.82 63.6731 145.559 63.0679C144.298 62.469 143.33 61.6764 142.655 60.697C141.981 59.7175 141.644 58.4448 141.644 56.8729C141.644 55.3007 142.018 53.9657 142.768 52.8487C143.517 51.7322 144.572 50.8773 145.934 50.2783C147.295 49.6794 148.893 49.3799 150.735 49.3799C152.578 49.3799 154.208 49.6918 155.644 50.3157C157.08 50.9396 158.204 51.8693 159.029 53.1108C159.846 54.3462 160.258 55.8997 160.258 57.7586V58.863H155.475V57.7586C155.475 56.7791 155.282 55.9869 154.901 55.388C154.52 54.789 153.976 54.3462 153.265 54.0654C152.553 53.7846 151.71 53.6412 150.729 53.6412C149.256 53.6412 148.175 53.9154 147.476 54.4708C146.776 55.0199 146.427 55.7747 146.427 56.7292C146.427 57.3656 146.595 57.9022 146.926 58.3451C147.257 58.7816 147.757 59.15 148.419 59.4433C149.081 59.7362 149.924 59.9921 150.954 60.2168L151.797 60.3978C153.633 60.7908 155.238 61.2897 156.599 61.9011C157.961 62.5126 159.016 63.3238 159.778 64.3282C160.54 65.3326 160.92 66.6178 160.92 68.1838C160.92 69.7498 160.521 71.1284 159.721 72.3201C158.928 73.5115 157.798 74.4411 156.337 75.1086C154.876 75.7824 153.159 76.1193 151.173 76.1193" fill="#292929"/>
<path d="M170.281 65.4759H177.194L174.065 52.9484H173.403L170.275 65.4759H170.281ZM162.738 75.6141L169.507 49.8916H177.962L184.731 75.6141H179.729L178.331 69.9554H169.139L167.74 75.6141H162.738Z" fill="#292929"/>
<path d="M187.341 75.6142V49.8979H196.577L201.685 72.3074H202.347V49.8979H207.13V75.6142H197.901L192.786 53.2044H192.125V75.6142H187.341Z" fill="#292929"/>
<path d="M142.218 110.888V85.1714H151.229L155.682 107.581H156.344L160.796 85.1714H169.806V110.888H165.098V88.7337H164.436L160.021 110.888H152.003L147.589 88.7337H146.927V110.888H142.218Z" fill="#292929"/>
<path d="M180.235 100.75H187.148L184.019 88.2227H183.357L180.228 100.75H180.235ZM172.692 110.888L179.461 85.1655H187.916L194.685 110.888H189.683L188.284 105.23H179.092L177.693 110.888H172.692Z" fill="#292929"/>
<path d="M202.484 96.7821H208.298C209.447 96.7821 210.352 96.4701 211.002 95.8466C211.651 95.2227 211.976 94.3928 211.976 93.3635V92.9954C211.976 91.9657 211.657 91.1424 211.021 90.5123C210.384 89.8884 209.478 89.5765 208.298 89.5765H202.484V96.7759V96.7821ZM197.626 110.888V85.1655H208.804C210.421 85.1655 211.832 85.4463 213.031 86.0079C214.23 86.5695 215.167 87.3679 215.829 88.3972C216.491 89.4269 216.822 90.6369 216.822 92.0347V92.4775C216.822 94.0185 216.453 95.2663 215.717 96.2271C214.98 97.1817 214.074 97.8803 212.994 98.3169V98.9782C213.974 99.0281 214.736 99.3649 215.273 99.9888C215.81 100.613 216.085 101.443 216.085 102.472V110.888H211.227V103.171C211.227 102.584 211.071 102.104 210.771 101.736C210.465 101.368 209.953 101.187 209.247 101.187H202.478V110.888H197.626Z" fill="#292929"/>
<path d="M226.75 110.888V89.5761H219.032V85.1714H239.433V89.5761H231.609V110.888H226.75Z" fill="#292929"/>
<path d="M246.877 85.1714H242.018V110.894H246.877V85.1714Z" fill="#292929"/>
<path d="M251.217 110.888V85.1714H260.452L265.56 107.581H266.222V85.1714H271.006V110.888H261.776L256.662 88.4782H256V110.888H251.217Z" fill="#292929"/>
</g>
</g>
<defs>
<clipPath id="clip0_233_707">
<rect width="272" height="125" fill="white" transform="translate(0.666748)"/>
</clipPath>
<clipPath id="clip1_233_707">
<rect width="272" height="125" fill="white" transform="translate(0.666748)"/>
</clipPath>
</defs>
</svg>
