<svg width="279" height="201" viewBox="0 0 279 201" fill="none" xmlns="http://www.w3.org/2000/svg">
<g clip-path="url(#clip0_233_684)">
<path d="M76.0923 58.4199C72.8647 52.1477 68.0898 46.8102 62.2231 42.9167C56.3564 39.0232 49.5937 36.7035 42.5801 36.179C28.8153 34.4387 16.1915 27.6092 7.17554 17.0249C7.95685 19.5316 9.1567 21.8868 10.7239 23.99C19.713 37.9203 41.1608 40.4531 41.1608 40.4531C54.5832 42.0539 66.9691 48.4952 76.0134 58.5782L76.0923 58.4199Z" fill="#292929"/>
<path d="M75.6192 66.969L76.0923 67.6813C72.741 62.5931 68.1847 58.4186 62.8316 55.5317C57.4785 52.6448 51.4957 51.1355 45.4189 51.1391C39.6377 51.4793 33.8608 50.4034 28.5859 48.0042C23.3111 45.6051 18.6964 41.9546 15.1396 37.3672C15.5473 38.4678 16.1045 39.5065 16.7955 40.454C18.688 44.0949 25.4693 53.3553 45.8131 55.2549C67.5763 57.2337 74.5942 65.5443 76.0923 67.7605L75.6192 66.969Z" fill="#292929"/>
<path d="M76.2499 77.4952C73.2675 73.2994 69.2907 69.9156 64.6788 67.6493C60.0668 65.383 54.9651 64.3057 49.8344 64.5147C44.9682 65.0136 40.0546 64.2994 35.5292 62.4354C31.0039 60.5715 27.0067 57.6156 23.8921 53.8296C24.2626 54.7526 24.7389 55.6291 25.3114 56.4415C26.7307 59.0534 32.487 67.3641 50.3864 68.2347C68.2858 69.1054 74.8305 76.1497 76.171 77.6535C75.7236 76.9807 75.2226 76.3454 74.6728 75.7539C75.25 76.2852 75.7778 76.868 76.2499 77.4952Z" fill="#292929"/>
<path d="M70.888 106.86C63.4759 108.997 40.4511 114.775 40.9242 139.311C41.3973 163.847 71.4399 176.59 71.4399 176.59C23.1036 124.51 70.888 106.86 70.888 106.86Z" fill="#292929"/>
<path d="M224.019 42.5909C223.972 42.1139 223.792 41.6599 223.499 41.2816C223.206 40.9034 222.812 40.6163 222.363 40.4538C221.732 40.4538 220.628 39.5832 220.076 40.4538C219.806 41.222 219.806 42.0601 220.076 42.8283C220.549 44.5696 222.994 46.7858 224.019 44.253C224.146 43.7064 224.146 43.1375 224.019 42.5909Z" fill="#292929"/>
<path d="M233.481 73.855C233.954 76.2295 239.631 72.1929 236.872 71.2431C234.112 70.2933 233.481 73.855 233.481 73.855Z" fill="#292929"/>
<path d="M160.543 105.752C144.639 100.969 129.916 92.8785 117.332 82.0071C123.917 76.374 128.231 68.5242 129.465 59.928C130.699 51.3318 128.768 42.5791 124.034 35.3091C121.709 31.1314 118.787 27.3181 115.361 23.9907C131.131 11.6435 166.536 -5.29448 231.904 20.2707C231.904 20.2707 160.306 -21.0452 105.741 16.155C67.5762 -8.14384 0 3.09535 0 3.09535C0 3.09535 66.63 0.562553 97.9343 25.8903C90.9165 37.2086 84.9237 57.55 104.4 81.8488C96.0512 91.828 85.8473 100.081 74.3575 106.148C87.6807 101.987 100.229 95.6494 111.497 87.3893C124.507 96.5706 154.944 114.933 187.037 111.134C187.037 111.134 182.07 110.501 174.736 108.997C167.403 107.493 160.543 105.752 160.543 105.752ZM109.683 72.9049C106.74 68.7702 104.575 64.1294 103.296 59.2121C101.484 50.7645 102.367 41.9586 105.82 34.0427C106.98 35.5607 108.009 37.176 108.895 38.8708C111.91 44.0044 113.565 49.8273 113.703 55.7848C113.841 61.7424 112.457 67.6362 109.683 72.9049Z" fill="#292929"/>
<path d="M214.951 67.9974C212.243 66.9479 210.003 64.9537 208.642 62.3804C207.28 59.8072 206.889 56.8275 207.539 53.988C202.091 53.859 196.855 51.846 192.715 48.2892C191.024 45.8164 190.2 42.85 190.371 39.8558C190.542 36.8617 191.7 34.0095 193.661 31.7471C191.983 32.5801 190.397 33.5882 188.93 34.7547C187.064 36.2215 185.621 38.1614 184.751 40.3743C183.963 42.6015 183.963 45.0331 184.751 47.2603C185.43 49.3036 186.593 51.1506 188.141 52.6425C190.982 55.1849 194.533 56.7877 198.313 57.2331C199.639 57.4864 200.985 57.6188 202.335 57.6288C202.69 59.8195 203.603 61.8811 204.984 63.6142C206.365 65.3474 208.169 66.6935 210.22 67.5225C213.531 69.1055 217.224 69.7095 220.865 69.2638C218.851 69.0731 216.867 68.6481 214.951 67.9974Z" fill="#292929"/>
<path d="M232.929 23.3569C232.929 23.3569 225.044 29.8472 227.804 47.1017C229.554 55.0967 233.36 62.4919 238.843 68.5511C238.843 68.5511 225.99 42.0361 232.929 23.3569Z" fill="#292929"/>
<path d="M87.0527 193.607C82.249 188.68 79.5598 182.059 79.5618 175.165C79.4048 168.224 81.9507 161.494 86.6584 156.407C88.9694 153.924 91.7844 151.968 94.9131 150.671C98.0418 149.374 101.412 148.766 104.794 148.888C109.579 148.821 114.319 149.821 118.672 151.816C119.619 152.291 119.934 152.212 120.092 151.816L120.644 150.075C120.644 149.679 120.644 149.679 121.905 149.679C123.167 149.679 123.088 149.679 123.088 150.787C123.088 151.896 124.35 163.847 124.665 165.984C124.665 166.459 124.665 166.776 124.665 166.855H123.167C122.773 166.855 122.536 166.855 122.3 166.142C121.259 162.636 119.393 159.433 116.859 156.803C115.333 155.192 113.499 153.905 111.467 153.022C109.435 152.138 107.246 151.674 105.031 151.658C94.9379 151.658 90.6799 160.839 90.7588 171.129C90.6764 177.676 92.849 184.05 96.9092 189.175C98.2269 190.752 99.8658 192.027 101.716 192.914C103.565 193.801 105.583 194.281 107.633 194.32C110.726 194.459 113.809 193.866 116.631 192.587C119.453 191.308 121.935 189.38 123.877 186.959C123.877 186.405 124.507 186.088 124.902 186.405L126.085 187.434C126.085 187.434 126.085 187.434 126.085 188.225C124.013 191.29 121.318 193.878 118.176 195.821C115.035 197.763 111.519 199.015 107.861 199.493C104.202 199.972 100.484 199.667 96.9518 198.598C93.4195 197.528 90.1531 195.72 87.3681 193.291L87.0527 193.607Z" fill="#292929"/>
<path d="M138.385 195.744C135.14 193.419 132.519 190.322 130.758 186.73C128.997 183.139 128.15 179.166 128.292 175.166C128.355 168.843 130.614 162.74 134.679 157.911C139.349 152.925 145.683 149.839 152.475 149.24C159.266 148.642 166.04 150.573 171.503 154.666C174.542 157.155 176.969 160.313 178.597 163.896C180.224 167.478 181.007 171.389 180.887 175.324C180.853 180.787 179.054 186.092 175.761 190.441C173.313 193.713 170.092 196.323 166.39 198.036C162.688 199.749 158.619 200.512 154.55 200.256C148.855 200.245 143.269 198.686 138.385 195.744ZM169.926 175.878C169.926 160.681 160.07 152.133 154.156 152.133C152.457 152.044 150.761 152.34 149.191 152.997C147.622 153.655 146.219 154.658 145.088 155.932C141.063 160.578 138.9 166.557 139.016 172.712C139.016 190.441 149.109 196.457 154.787 196.457C167.876 196.694 170.084 181.26 170.084 175.641L169.926 175.878Z" fill="#292929"/>
<path d="M196.815 172.791C199.152 172.946 201.496 172.946 203.833 172.791C205.103 172.432 206.215 171.651 206.987 170.575C207.902 169.297 208.447 167.791 208.564 166.222C208.564 165.747 208.564 165.589 209.116 165.589H211.008C211.008 165.589 211.639 165.589 211.56 166.143C211.419 168.568 211.419 170.999 211.56 173.424C211.56 176.59 211.56 179.994 211.954 181.339C212.349 182.685 211.954 181.814 211.402 181.893H209.746C209.746 181.893 209.352 181.893 209.195 181.339C208.87 180.084 208.421 178.864 207.854 177.699C207.42 177.055 206.861 176.506 206.211 176.085C205.56 175.663 204.832 175.377 204.069 175.245C201.732 175.094 199.388 175.094 197.051 175.245V179.44C197.051 183.239 197.051 190.046 197.051 191.312C197.051 194.953 197.84 196.219 198.707 196.615C200.588 197.228 202.575 197.443 204.542 197.248C205.646 197.248 208.564 197.248 209.983 197.248C211.914 196.962 213.736 196.17 215.266 194.953C217.001 193.449 220.865 189.096 222.284 187.038C222.284 187.038 222.757 187.038 222.915 187.038L224.098 187.75C224.155 187.831 224.186 187.928 224.186 188.028C224.186 188.127 224.155 188.224 224.098 188.305L220.944 198.91C220.868 199.239 220.672 199.528 220.394 199.718C220.117 199.909 219.778 199.988 219.445 199.939H213.216H183.725H180.729C180.256 199.939 180.098 199.939 180.098 199.148V197.723C180.098 197.248 180.098 197.09 180.808 197.09H182.858C186.012 197.09 186.327 196.615 186.327 194.082V170.338C186.327 164.56 186.327 155.932 186.327 155.22C186.327 152.925 185.381 152.45 183.489 152.45H180.808C180.808 152.45 180.808 152.45 180.808 151.738V150.075C180.793 150.01 180.794 149.942 180.813 149.877C180.831 149.813 180.866 149.754 180.913 149.706C180.96 149.659 181.019 149.624 181.083 149.606C181.148 149.587 181.216 149.585 181.281 149.601C182.779 149.601 185.224 149.601 191.453 149.601H215.582H218.341C218.736 149.601 218.815 149.601 218.893 149.601C218.972 149.601 221.417 160.207 221.732 160.919C222.047 161.631 221.732 161.394 221.732 161.631L220.628 162.185C220.577 162.238 220.515 162.28 220.448 162.308C220.38 162.337 220.307 162.352 220.234 162.352C220.16 162.352 220.088 162.337 220.02 162.308C219.952 162.28 219.891 162.238 219.84 162.185C217.422 159.343 214.786 156.697 211.954 154.27C210.394 153.233 208.61 152.582 206.75 152.371H197.682L196.815 172.791Z" fill="#292929"/>
<path d="M269.517 179.202C269.517 172.95 269.517 169.546 269.517 166.064C269.517 162.581 269.122 156.407 268.965 155.378C268.727 154.577 268.237 153.875 267.57 153.376C266.902 152.877 266.091 152.607 265.259 152.608H263.051C263.051 152.608 262.656 152.608 262.656 151.975V150.234C262.656 150.234 262.656 149.759 263.287 149.759C263.918 149.759 266.284 149.759 271.172 149.759C276.061 149.759 276.929 149.759 277.717 149.759C278.506 149.759 278.427 149.759 278.427 150.313V151.975C278.427 152.371 278.427 152.608 278.427 152.608H276.534C275.352 152.608 274.642 153.795 274.484 156.328C274.011 161.077 272.907 176.907 272.907 186.167V198.198C272.907 199.227 272.907 200.493 271.882 200.493C271.381 200.525 270.879 200.442 270.414 200.25C269.95 200.058 269.535 199.762 269.201 199.385C268.018 198.277 264.628 194.557 260.527 189.571L248.778 175.324C247.596 173.899 238.055 161.789 236.478 159.494H235.926V173.662C235.926 179.519 236.556 188.146 236.635 190.837C236.635 194.874 237.976 197.011 240.893 197.011H242.628C243.101 197.011 243.18 197.011 243.18 197.644V199.306C243.18 199.702 243.18 199.86 242.628 199.86C242.076 199.86 237.818 199.86 234.743 199.86H226.858C226.858 199.86 226.858 199.86 226.858 199.227V197.407C226.858 197.407 226.858 197.011 227.252 197.011H229.617C231.116 197.011 232.22 194.716 232.614 190.046C232.614 188.7 233.166 177.461 233.166 167.092V160.761C233.166 156.645 230.721 152.846 227.331 152.846H225.596C225.202 152.846 225.202 152.846 225.202 152.371V150.471C225.202 150.471 225.202 150.075 225.596 150.075H226.858C228.198 150.075 230.406 150.075 233.954 150.075H239.237C239.611 150.054 239.985 150.121 240.327 150.272C240.67 150.424 240.972 150.655 241.209 150.946C241.209 151.421 255.087 168.28 256.979 170.892C258.004 172.079 268.018 184.98 268.807 185.851L269.517 179.202Z" fill="#292929"/>
<path d="M107.87 131.95H97.6978C97.6182 131.949 97.5393 131.965 97.4666 131.998C97.394 132.031 97.3292 132.079 97.2767 132.139C97.2243 132.199 97.1855 132.27 97.1629 132.347C97.1403 132.423 97.1345 132.504 97.1458 132.583V133.454C97.1324 133.54 97.1394 133.628 97.1663 133.711C97.1933 133.794 97.2393 133.87 97.3008 133.931C97.3623 133.993 97.4375 134.039 97.5202 134.066C97.6028 134.093 97.6907 134.1 97.7766 134.087H99.3537C100.063 134.087 100.379 134.087 100.379 135.512V138.282C100.379 140.181 100.379 141.131 99.6691 141.527C98.0874 142.246 96.3563 142.572 94.6226 142.477C93.5414 142.473 92.4724 142.247 91.4822 141.811C90.4919 141.375 89.6016 140.74 88.8663 139.944C86.4805 137.072 85.2938 133.385 85.5546 129.655C85.5337 126.614 86.5964 123.667 88.5509 121.344C89.2678 120.402 90.2027 119.651 91.2745 119.154C92.3463 118.658 93.5226 118.431 94.7014 118.494C95.8354 118.453 96.9649 118.658 98.0127 119.095C99.0606 119.532 100.002 120.191 100.773 121.027C102.07 122.535 103.062 124.283 103.691 126.172C103.742 126.318 103.838 126.443 103.966 126.528C104.094 126.614 104.247 126.656 104.4 126.647H105.346C105.346 126.647 105.346 126.172 105.346 125.776V118.257C105.358 118.147 105.345 118.035 105.311 117.93C105.276 117.824 105.22 117.728 105.145 117.645C105.071 117.563 104.98 117.498 104.879 117.453C104.778 117.409 104.668 117.386 104.558 117.386C104.387 117.39 104.22 117.445 104.08 117.544C103.94 117.642 103.832 117.78 103.769 117.94L103.139 118.653C100.767 117.208 98.0256 116.493 95.2534 116.595C91.2518 116.418 87.3332 117.776 84.2929 120.394C82.9101 121.609 81.801 123.105 81.0396 124.784C80.2782 126.463 79.8819 128.285 79.8772 130.129C79.7006 132.128 79.9588 134.142 80.634 136.031C81.3092 137.92 82.3852 139.639 83.7876 141.069C85.19 142.499 86.8852 143.607 88.7561 144.314C90.6269 145.022 92.6286 145.313 94.6226 145.168C98.3817 145.282 102.105 144.409 105.425 142.635C105.425 142.635 106.214 142.635 106.214 141.764C106.246 141.581 106.246 141.394 106.214 141.21C106.214 141.21 106.214 141.21 106.214 140.498V135.512C106.214 134.483 106.608 134.403 107.081 134.403H108.343C108.737 134.403 108.974 134.403 108.974 133.849V132.425C108.579 132.425 108.579 131.95 107.87 131.95Z" fill="#292929"/>
<path d="M151.948 142.319C151.084 142.402 150.219 142.178 149.504 141.686C148.37 140.324 147.317 138.897 146.349 137.412V136.937L143.511 132.742C143.044 132.124 142.453 131.612 141.776 131.238C142.734 131.169 143.668 130.908 144.524 130.469C145.379 130.031 146.138 129.425 146.755 128.687C147.373 127.949 147.837 127.094 148.119 126.172C148.402 125.251 148.497 124.282 148.4 123.323C148.371 122.468 148.16 121.63 147.779 120.865C147.397 120.1 146.856 119.426 146.192 118.891C144.209 117.222 141.681 116.348 139.095 116.437H127.188C127.113 116.423 127.035 116.428 126.962 116.45C126.888 116.473 126.821 116.514 126.767 116.568C126.713 116.623 126.672 116.69 126.65 116.764C126.627 116.837 126.622 116.916 126.636 116.991V118.02C126.636 118.093 126.651 118.165 126.678 118.232C126.706 118.3 126.747 118.361 126.798 118.412C126.849 118.464 126.91 118.504 126.977 118.532C127.044 118.56 127.116 118.574 127.188 118.574H128.687C129.239 118.574 129.554 119.128 129.554 120.157V130.051C129.554 133.613 129.554 137.174 129.554 140.974C129.554 141.686 129.554 141.923 128.45 141.923H127.188C127.109 141.923 127.03 141.939 126.957 141.972C126.885 142.004 126.82 142.052 126.767 142.113C126.715 142.173 126.676 142.243 126.654 142.32C126.631 142.397 126.625 142.477 126.636 142.557V143.427C126.636 143.51 126.653 143.593 126.684 143.67C126.716 143.746 126.763 143.816 126.821 143.875C126.88 143.934 126.949 143.98 127.026 144.012C127.102 144.044 127.184 144.06 127.267 144.06H137.439C137.528 144.072 137.619 144.064 137.705 144.037C137.791 144.01 137.87 143.965 137.937 143.905C138.004 143.845 138.058 143.772 138.095 143.689C138.131 143.607 138.15 143.517 138.149 143.427V142.477C138.15 142.397 138.133 142.318 138.101 142.245C138.068 142.172 138.02 142.107 137.96 142.055C137.9 142.002 137.83 141.963 137.754 141.94C137.677 141.918 137.597 141.912 137.518 141.923H135.626C135.231 141.923 135.074 141.29 134.995 140.736C134.916 140.182 134.995 136.066 134.995 133.692V132.425H135.862C137.36 132.425 138.149 133.375 139.016 134.562C139.884 135.75 140.672 137.174 141.066 137.808L141.461 138.52C142.013 139.628 143.038 141.448 143.511 142.24C144.003 143.043 144.585 143.786 145.246 144.456H152.5C152.5 144.456 153.131 144.456 153.131 143.744V142.952C153.214 142.795 153.232 142.611 153.181 142.44C153.129 142.269 153.012 142.126 152.855 142.042C152.698 141.958 152.514 141.94 152.344 141.992C152.174 142.044 152.032 142.162 151.948 142.319ZM142.407 124.511C142.399 125.374 142.214 126.226 141.862 127.014C141.51 127.802 141 128.508 140.363 129.088C139.726 129.668 138.976 130.109 138.161 130.384C137.345 130.658 136.482 130.761 135.626 130.684H134.522V119.762C134.522 119.366 134.522 118.97 134.522 118.891C134.91 118.79 135.317 118.79 135.704 118.891C137.415 118.766 139.108 119.304 140.436 120.395C141.029 120.907 141.511 121.537 141.85 122.246C142.189 122.954 142.379 123.725 142.407 124.511Z" fill="#292929"/>
<path d="M194.055 116.596H185.618C185.618 116.596 184.987 116.596 184.987 117.15V118.099C184.974 118.186 184.981 118.274 185.008 118.357C185.034 118.44 185.081 118.515 185.142 118.577C185.204 118.639 185.279 118.685 185.361 118.712C185.444 118.739 185.532 118.746 185.618 118.733H186.958C187.589 118.733 188.062 119.287 188.22 120.078C188.378 120.87 188.22 124.273 188.22 127.281V134.087C188.323 135.209 188.187 136.34 187.82 137.405C187.452 138.47 186.863 139.443 186.091 140.261C184.744 141.396 183.039 142.013 181.281 142.002C180.351 142.034 179.427 141.85 178.58 141.466C177.732 141.081 176.984 140.507 176.392 139.786C175.569 138.426 175.132 136.866 175.131 135.275C175.131 134.008 175.131 131.396 175.131 129.497V124.748C175.131 122.611 175.131 120.316 175.131 119.92C175.131 119.524 175.761 118.733 176.708 118.733H178.285C178.371 118.746 178.458 118.739 178.541 118.712C178.624 118.685 178.699 118.639 178.76 118.577C178.822 118.515 178.868 118.44 178.895 118.357C178.922 118.274 178.929 118.186 178.915 118.099V117.15C178.916 117.07 178.9 116.99 178.867 116.918C178.835 116.845 178.787 116.78 178.727 116.727C178.667 116.674 178.596 116.635 178.52 116.613C178.444 116.59 178.363 116.584 178.285 116.596H167.009C167.009 116.596 166.299 116.596 166.299 117.15V118.02C166.299 118.574 166.299 118.733 166.93 118.733H168.665C169.295 118.733 169.611 118.733 169.611 120.316V129.259C169.393 132.338 169.633 135.432 170.321 138.441C170.634 139.626 171.217 140.722 172.024 141.642C172.832 142.563 173.841 143.282 174.973 143.744C176.742 144.388 178.611 144.71 180.492 144.693C183.081 144.798 185.614 143.922 187.589 142.24C188.624 141.297 189.453 140.15 190.023 138.869C190.593 137.588 190.892 136.203 190.901 134.8C190.901 133.217 190.901 126.885 190.901 126.093C190.901 122.69 190.901 120.157 190.901 119.92C190.901 119.682 190.901 118.733 192.163 118.733H193.503C193.503 118.733 194.055 118.733 194.055 118.02V117.15C194.765 116.596 194.528 116.596 194.055 116.596Z" fill="#292929"/>
<path d="M230.09 118.732C227.374 117.071 224.181 116.375 221.023 116.754H211.087C211.012 116.739 210.934 116.744 210.86 116.767C210.787 116.79 210.72 116.83 210.666 116.885C210.611 116.939 210.571 117.006 210.548 117.08C210.526 117.154 210.521 117.232 210.535 117.308V118.257C210.524 118.336 210.53 118.417 210.552 118.494C210.575 118.57 210.614 118.641 210.666 118.701C210.719 118.762 210.783 118.81 210.856 118.842C210.929 118.875 211.008 118.891 211.087 118.891H213.058C213.926 118.891 214.083 118.891 214.083 119.445C214.083 119.999 214.083 123.877 214.083 126.331V130.684C214.083 135.116 214.083 140.973 214.083 141.369C214.083 141.765 214.084 142.24 212.743 142.24H211.481C210.929 142.24 210.929 142.24 210.929 142.873V143.823C210.929 144.297 211.324 144.377 211.56 144.377H222.6C223.23 144.377 223.23 143.902 223.23 143.664V142.794C223.23 142.319 222.836 142.24 222.6 142.24H220.471C220.076 142.24 219.761 142.24 219.603 141.29V132.425H222.678C229.223 132.425 233.087 129.497 233.087 124.51C233.057 123.382 232.771 122.276 232.252 121.275C231.733 120.274 230.994 119.404 230.09 118.732ZM226.858 124.51C226.939 125.799 226.667 127.086 226.069 128.23C225.56 128.924 224.91 129.501 224.163 129.924C223.415 130.347 222.587 130.606 221.732 130.684C220.947 130.782 220.152 130.782 219.367 130.684V118.891C219.836 118.808 220.316 118.808 220.786 118.891H221.259C221.997 118.88 222.73 119.018 223.414 119.297C224.098 119.575 224.719 119.989 225.241 120.513C225.763 121.037 226.175 121.66 226.453 122.347C226.731 123.034 226.868 123.769 226.858 124.51Z" fill="#292929"/>
<path d="M273.38 119.365C270.815 117.239 267.557 116.139 264.233 116.278C262.164 116.191 260.104 116.59 258.215 117.441C256.326 118.293 254.661 119.575 253.352 121.186C251.13 123.918 249.882 127.316 249.803 130.842C249.732 133.077 250.213 135.295 251.203 137.297C252.194 139.3 253.664 141.025 255.481 142.318C258.11 143.89 261.096 144.762 264.154 144.851C266.392 144.96 268.622 144.512 270.645 143.545C272.667 142.578 274.42 141.123 275.746 139.311C277.659 136.908 278.69 133.918 278.663 130.842C278.71 128.652 278.259 126.479 277.343 124.491C276.428 122.502 275.072 120.749 273.38 119.365ZM264.47 142.556C261.631 142.556 255.638 139.311 255.638 129.496C255.607 126.245 256.756 123.094 258.871 120.632C259.45 119.989 260.156 119.475 260.943 119.121C261.73 118.766 262.582 118.58 263.445 118.574H264.154C266.91 119.216 269.333 120.854 270.962 123.175C272.591 125.496 273.311 128.338 272.986 131.158C272.986 132.425 272.749 142.556 264.47 142.556Z" fill="#292929"/>
</g>
<defs>
<clipPath id="clip0_233_684">
<rect width="278.667" height="200" fill="white" transform="translate(0 0.5)"/>
</clipPath>
</defs>
</svg>
