<svg width="242" height="275" viewBox="0 0 242 275" fill="none" xmlns="http://www.w3.org/2000/svg">
<g clip-path="url(#clip0_233_725)">
<path d="M119.255 13.3479C119.255 13.3479 118.806 16.7779 118.806 17.7906C118.806 18.8033 117.499 25.4591 121.435 29.5016C125.38 33.5278 124.269 40.1918 123.395 41.0003C122.546 41.7843 121.223 46.6353 121.223 48.2605C121.223 49.8857 121.435 57.5542 120.553 59.751C119.688 61.9805 119.688 67.6237 119.688 69.0202C119.688 70.4167 119.688 74.4837 120.553 75.3004C121.444 76.1007 122.301 72.05 122.105 68.62C121.868 65.2064 123.632 60.3553 123.861 58.7547C124.073 57.1377 125.617 49.2813 125.617 47.256C125.617 45.2307 125.821 43.4177 127.128 41.7843C128.442 40.1836 129.112 33.3318 124.073 24.8466C124.073 24.8466 120.782 18.4031 123.183 15.3733C123.183 15.3733 127.128 11.1348 123.64 8.91343C123.64 8.91343 119.263 7.29643 119.263 13.3479" fill="#292929"/>
<path d="M114.224 3.2703C114.224 3.2703 117.279 2.87013 115.531 5.90814C113.775 8.90531 106.344 16.5738 109.406 21.2288C109.406 21.2288 110.721 23.6298 110.721 25.2632C110.721 26.8965 111.382 34.761 113.351 36.9742C113.351 36.9742 115.539 42.6255 115.539 45.2225C115.539 47.8195 116.438 62.9197 116.217 65.7291C116.078 67.5666 116.029 71.8623 116.74 73.9856C117.099 75.1453 117.728 75.6353 118.594 74.2959C118.594 74.2959 118.814 72.0583 119.255 62.5849C119.696 53.0871 119.459 47.4275 119.459 47.4275C119.459 47.4275 119.255 39.9714 117.075 35.7492C114.87 31.5107 113.563 26.8557 113.563 26.8557C113.563 26.8557 112.036 19.1872 115.09 11.731C115.09 11.731 117.948 6.48797 118.814 5.27114C118.814 5.27114 120.562 1.25313 118.161 0.264963C118.161 0.264963 115.531 -0.331204 113.775 0.264963C112.036 0.885631 107.871 0.264964 107.871 3.8828C107.871 3.8828 109.406 7.10048 112.681 4.69947C112.681 4.69947 113.783 3.48264 114.224 3.27847M95.6207 73.8876C97.8012 91.0295 104.8 98.2651 104.8 98.2651C105.69 100.911 103.493 99.9066 103.493 99.9066C97.1479 92.6383 93.8567 80.1188 93.8567 80.1188C88.1809 95.4476 105.249 110.58 105.249 110.58L104.604 112.818C83.6075 96.2561 91.4802 77.6933 92.1172 75.5128C92.7869 73.2751 92.1172 70.8414 92.1172 70.8414C87.5194 53.5281 91.4802 46.8395 92.7869 41.4087C94.1017 35.9534 96.2822 36.966 96.2822 36.966C97.8175 37.7664 96.7314 39.9632 96.7314 39.9632C92.991 47.256 92.7869 59.5469 92.7869 59.5469C93.4484 64.3897 94.7469 60.3636 94.7469 60.3636C94.7469 55.1124 100.896 44.2344 100.896 44.2344C100.896 26.2758 103.052 25.2632 105.486 25.4592C107.887 25.6715 106.793 30.7104 106.793 30.7104C105.698 32.9154 104.375 42.2172 104.375 42.2172C102.424 70.8414 107.895 80.3474 107.895 80.3474L105.911 81.5561C105.911 81.5561 100.905 73.2751 100.905 50.2777C100.905 50.2777 94.9837 59.5469 95.4165 68.4241C95.4165 68.4241 95.4165 69.8369 96.078 70.4576C96.078 70.4576 96.9437 71.2498 96.2985 72.8586C96.2985 72.8586 95.5145 72.8586 95.6452 73.8794" fill="#292929"/>
<path d="M96.5027 93.6348L97.5889 93.8553C97.5889 93.8553 98.2504 124.905 108.099 127.355L108.32 128.923C108.32 128.923 97.1479 128.923 96.5027 93.6348Z" fill="#292929"/>
<path d="M93.432 104.137H95.4002C95.4002 104.137 94.7305 122.471 105.233 131.961L99.7775 130.132C99.7775 130.132 93.6607 119.433 93.432 104.137ZM146.377 133.194L146.164 122.471L148.124 112.418C148.124 112.418 149.153 110.238 147.896 110.385C147.896 110.385 146.164 110.703 147.005 108.376C148.173 105.019 148.124 100.503 148.124 100.503C148.124 100.503 148.345 95.8888 147.259 95.8888C147.259 95.8888 145.731 95.8888 145.731 98.0611C145.731 100.233 145.503 106.162 143.959 109.176C142.448 112.222 139.802 119.041 139.378 120.266C138.937 121.475 136.078 122.096 136.078 122.096L135.613 124.309L139.37 123.108C139.37 123.108 141.117 123.476 142.195 119.85C143.298 116.224 144.392 114.419 144.392 114.419C144.392 114.419 146.148 111.585 145.037 115.815C143.951 120.046 143.731 121.875 144.392 126.334L146.36 133.194H146.377ZM135.433 53.4302C135.433 53.4302 136.536 49.8042 135.433 44.7409C134.363 39.7183 133.922 37.7175 136.315 38.134C138.724 38.526 137.426 40.3227 137.638 44.357C137.851 48.4159 138.087 54.647 138.087 56.0517C138.087 57.4564 138.087 60.4862 138.733 62.5034C139.394 64.5124 140.488 69.1592 139.394 76.2316C138.3 83.2631 138.953 83.2631 137.646 86.9054C137.646 86.9054 136.764 89.1431 135.67 89.1431C135.67 89.1431 134.6 89.1431 135.891 85.7049C137.214 82.2504 139.19 75.2271 137.214 68.9551C137.214 68.9551 135.891 74.6227 136.119 79.6371L133.718 80.0372C133.718 80.0372 134.6 69.3797 135.254 64.937C135.882 60.478 134.159 57.8729 131.538 53.03C131.538 53.03 130.215 50.825 131.742 49.8042C131.742 49.8042 133.931 48.5792 133.931 51.0129C133.931 51.0129 134.372 53.2342 135.441 53.4302" fill="#292929"/>
<path d="M135.646 114.541L142.898 107.461C142.898 107.461 143.976 105.46 143.976 102.046V90.5639C143.976 90.5639 143.085 80.674 143.085 78.0607C143.085 75.4474 143.518 63.1238 143.518 58.6812C143.518 54.2385 144.172 52.3112 142.898 52.3112C142.898 52.3112 141.575 51.3801 141.411 55.1123C141.248 58.8853 140.97 70.9884 141.142 74.451C141.248 77.9872 141.411 84.2919 141.248 85.1004C141.248 85.1004 140.088 84.7165 138.798 89.5431C137.475 94.3777 134.274 102.561 133.106 104.047L135.156 104.594C135.156 104.594 136.617 102.977 137.924 99.0817C139.223 95.1781 140.537 91.8216 140.537 91.3969C140.537 91.0131 141.591 88.4569 142.016 91.1519C142.473 93.8632 142.163 100.274 142.163 100.699C142.163 101.083 142.301 102.977 141.591 104.447C140.864 105.925 135.433 112.246 135.433 112.246L135.654 114.541H135.646Z" fill="#292929"/>
<path d="M136.928 77.6528C136.928 77.6528 124.318 78.445 121.648 92.4182C121.648 92.4182 134.861 91.8057 136.928 77.6528Z" fill="#292929"/>
<path d="M104.98 78.0688C104.98 78.0688 117.564 78.8528 120.268 92.826C120.268 92.826 107.029 92.1972 104.98 78.0688Z" fill="#292929"/>
<path d="M121.06 72.5967C121.06 72.5967 113.293 80.2244 120.431 90.1795C120.431 90.1795 128.892 80.5347 121.06 72.5967Z" fill="#292929"/>
<path d="M136.185 90.4336C136.185 90.4336 123.616 91.2176 120.913 105.207C120.913 105.207 134.143 104.57 136.193 90.4336" fill="#292929"/>
<path d="M105.698 90.686C105.698 90.686 118.283 91.4945 120.995 105.484C120.995 105.484 107.748 104.823 105.698 90.686Z" fill="#292929"/>
<path d="M121.346 86.0645C121.346 86.0645 113.563 93.7085 120.733 103.647C120.733 103.647 129.186 93.9698 121.346 86.0645Z" fill="#292929"/>
<path d="M136.185 101.711C136.185 101.711 123.616 102.536 120.913 116.501C120.913 116.501 134.143 115.856 136.193 101.711" fill="#292929"/>
<path d="M105.698 101.989C105.698 101.989 118.283 102.765 120.995 116.746C120.995 116.746 107.748 116.101 105.698 101.989Z" fill="#292929"/>
<path d="M121.346 99.8818C121.346 99.8818 113.563 107.542 120.733 117.506C120.733 117.506 129.186 107.812 121.346 99.8818Z" fill="#292929"/>
<path d="M137.075 110.842C137.075 110.842 124.482 111.651 121.803 125.624C121.803 125.624 135.025 124.987 137.075 110.842Z" fill="#292929"/>
<path d="M104.816 111.12C104.816 111.12 117.442 111.92 120.104 125.918C120.104 125.918 106.882 125.256 104.816 111.12Z" fill="#292929"/>
<path d="M121.346 113.316C121.346 113.316 113.563 120.96 120.733 130.94C120.733 130.94 129.186 121.254 121.346 113.316Z" fill="#292929"/>
<path d="M138.487 121.156C138.487 121.156 126.417 121.932 122.522 135.342C122.522 135.342 135.172 134.688 138.496 121.156" fill="#292929"/>
<path d="M103.257 120.756C103.257 120.756 115.327 121.516 119.231 134.893C119.231 134.893 106.589 134.28 103.257 120.756Z" fill="#292929"/>
<path d="M121.803 125.828C121.803 125.828 114.004 133.488 121.174 143.419C121.174 143.419 129.635 133.75 121.803 125.828Z" fill="#292929"/>
<path d="M105.29 130.156C105.29 130.156 117.36 130.94 121.272 144.3C121.272 144.3 108.63 143.696 105.29 130.156Z" fill="#292929"/>
<path d="M136.16 131.381C136.16 131.381 124.065 132.116 120.186 145.526C120.186 145.526 132.836 144.889 136.168 131.381" fill="#292929"/>
<path d="M121.942 139.547C121.942 139.547 114.183 147.191 121.321 157.13C121.321 157.13 129.757 147.445 121.942 139.547Z" fill="#292929"/>
<path d="M105.894 219.933C105.894 219.933 117.973 220.717 121.868 234.094C121.868 234.094 109.218 233.465 105.903 219.933" fill="#292929"/>
<path d="M104.563 210.524C104.563 210.524 116.65 211.308 120.545 224.677C120.545 224.677 107.903 224.081 104.563 210.524Z" fill="#292929"/>
<path d="M105.167 202.733C105.167 202.733 117.238 203.517 121.109 216.919C121.109 216.919 108.475 216.29 105.167 202.733Z" fill="#292929"/>
<path d="M107.054 195.081C107.054 195.081 119.124 195.849 123.036 209.234C123.036 209.234 110.361 208.63 107.054 195.081Z" fill="#292929"/>
<path d="M109.373 187.421C109.373 187.421 121.452 188.189 125.356 201.566C125.356 201.566 112.722 200.954 109.373 187.421Z" fill="#292929"/>
<path d="M138.626 219.933C138.626 219.933 126.556 220.717 122.652 234.094C122.652 234.094 135.294 233.465 138.626 219.933Z" fill="#292929"/>
<path d="M139.933 210.524C139.933 210.524 127.863 211.308 123.959 224.677C123.959 224.677 136.626 224.081 139.933 210.524Z" fill="#292929"/>
<path d="M139.353 202.733C139.353 202.733 127.307 203.517 123.387 216.919C123.387 216.919 136.054 216.29 139.361 202.733" fill="#292929"/>
<path d="M137.483 195.081C137.483 195.081 125.396 195.849 121.484 209.234C121.484 209.234 134.151 208.63 137.483 195.081Z" fill="#292929"/>
<path d="M135.131 187.421C135.131 187.421 123.085 188.189 119.173 201.566C119.173 201.566 131.799 200.954 135.131 187.421Z" fill="#292929"/>
<path d="M121.28 178.642C121.28 178.642 114.527 186.907 122.089 195.825C122.089 195.825 128.255 186.817 121.28 178.642Z" fill="#292929"/>
<path d="M122.848 190.124C122.848 190.124 115.555 197.972 122.497 207.331C122.497 207.331 129.284 198.683 122.848 190.132" fill="#292929"/>
<path d="M122.824 203.844C122.824 203.844 115.972 211.708 122.514 221.026C122.514 221.026 128.884 212.435 122.824 203.844Z" fill="#292929"/>
<path d="M123.044 215.032C123.044 215.032 116.217 224.318 122.775 235.465C122.775 235.465 129.12 225.216 123.044 215.032Z" fill="#292929"/>
<path d="M122.75 244.53L122.301 236.478C122.301 236.478 124.718 236.862 126.254 236.478C126.254 236.478 124.718 242.105 122.75 244.53ZM118.593 245.951C114.869 243.918 113.342 234.836 113.342 234.836C115.302 235.457 119.247 236.053 119.247 236.053L118.585 245.943L118.593 245.951ZM140.251 210.434C140.251 210.434 138.945 211.251 138.716 215.089C138.504 218.936 136.952 232.019 124.49 233.636C124.49 233.636 112.673 234.248 108.973 226.172C108.973 226.172 103.493 221.329 103.044 215.498C102.603 209.618 101.092 203.346 98.4625 202.962L99.9979 210.663C99.9979 210.663 98.9035 220.308 108.091 230.41C108.091 230.41 109.406 243.689 117.491 252.191L117.72 260.259C117.72 260.259 118.357 275 126.466 275C126.466 275 131.276 273.579 129.953 270.353C128.638 267.144 124.923 254.812 124.923 254.812C124.923 254.812 124.049 249.569 129.3 235.653C129.3 235.653 138.046 233.636 140.684 217.507L141.999 212.664C141.999 212.664 143.739 207.813 140.243 210.443" fill="#292929"/>
<path d="M144.784 169.217L144.49 166.016L157.769 159.564V165.338L169.856 159.409V165.607L182.841 159.556V165.338L193.327 159.27V169.209H144.792L144.784 169.217Z" fill="#292929"/>
<path d="M206.712 155.391H195.352V156.175H206.712V155.391ZM206.712 157.825H195.352V158.65H206.712V157.825ZM206.712 160.242H195.352V161.051H206.712V160.242ZM206.712 162.676H195.352V163.476H206.712V162.676ZM206.712 165.101H195.352V165.926H206.712V165.101ZM206.712 167.551H195.352V168.352H206.712V167.551ZM206.712 170.001H195.352V170.81H206.712V170.001ZM206.712 172.427H195.352V173.211H206.712V172.427ZM206.712 174.844H195.352V175.661H206.712V174.844ZM206.712 177.294H195.352V178.103H206.712V177.294ZM206.712 179.711H195.352V180.52H206.712V179.711Z" fill="#292929"/>
<path fill-rule="evenodd" clip-rule="evenodd" d="M123.281 165.551C123.281 135.889 149.758 111.806 182.277 111.806C214.805 111.806 241.281 135.946 241.281 165.551C241.281 195.155 214.797 219.238 182.277 219.238C149.758 219.238 123.281 195.212 123.281 165.551ZM144.8 204.309V192.713H147.381L150.484 200.912C150.786 201.696 150.999 202.259 151.129 202.651C151.268 202.235 151.489 201.606 151.824 200.773L154.968 192.713H157.271V204.309H155.629V194.599L151.807 204.317H150.247L146.458 194.46V204.317H144.792L144.8 204.309ZM162.702 198.674C162.702 200.095 163.126 201.181 163.992 201.982C164.825 202.79 165.903 203.199 167.193 203.199C168.484 203.199 169.545 202.758 170.403 201.933C171.236 201.157 171.661 200.03 171.661 198.503C171.661 197.539 171.497 196.731 171.138 196.053C170.77 195.35 170.24 194.787 169.537 194.419C168.868 194.003 168.067 193.823 167.202 193.823C165.977 193.823 164.898 194.199 164.016 194.934C163.126 195.685 162.693 196.918 162.693 198.666L162.702 198.674ZM160.905 198.67C160.906 196.72 161.486 195.243 162.685 194.134C163.853 193.064 165.348 192.508 167.185 192.508C168.402 192.508 169.505 192.762 170.46 193.284C171.448 193.774 172.175 194.493 172.69 195.408C173.204 196.314 173.449 197.384 173.449 198.535C173.449 199.687 173.196 200.765 172.657 201.68C172.126 202.619 171.35 203.313 170.37 203.803C169.39 204.268 168.32 204.505 167.185 204.505C165.944 204.505 164.85 204.236 163.886 203.713C162.906 203.199 162.171 202.464 161.656 201.565C161.175 200.635 160.906 199.681 160.905 198.67ZM177.002 204.309V192.713H178.766L185.634 201.818V192.713H187.308V204.309H185.528L178.668 195.195V204.309H177.01H177.002ZM191.791 192.713H193.678V204.309H191.791V192.713ZM196.397 200.585L198.194 200.463C198.284 201.01 198.48 201.516 198.774 201.884C199.092 202.251 199.582 202.553 200.195 202.798C200.856 203.035 201.591 203.133 202.4 203.133C203.135 203.133 203.756 203.043 204.311 202.872C204.866 202.7 205.291 202.472 205.56 202.153C205.822 201.835 205.944 201.516 205.944 201.157C205.944 200.798 205.822 200.463 205.569 200.201C205.291 199.948 204.891 199.703 204.286 199.532C203.894 199.426 203.061 199.238 201.722 198.96C200.407 198.731 199.493 198.454 198.97 198.225C198.292 197.947 197.786 197.596 197.467 197.155C197.092 196.731 196.961 196.257 196.961 195.702C196.961 195.146 197.165 194.599 197.573 194.06C197.974 193.554 198.57 193.162 199.37 192.909C200.146 192.655 201.028 192.508 201.975 192.508C203.053 192.508 203.984 192.647 204.801 192.925C205.618 193.203 206.255 193.611 206.687 194.125C207.128 194.673 207.349 195.301 207.382 195.963L205.577 196.077C205.462 195.359 205.128 194.795 204.572 194.428C204.017 194.06 203.168 193.864 202.073 193.864C200.979 193.864 200.064 194.06 199.558 194.403C199.052 194.73 198.766 195.154 198.766 195.612C198.766 196.069 198.978 196.379 199.321 196.657C199.705 196.894 200.644 197.196 202.196 197.49C203.756 197.735 204.785 198.013 205.373 198.233C206.197 198.544 206.818 198.927 207.226 199.401C207.602 199.891 207.798 200.438 207.798 201.026C207.798 201.663 207.578 202.243 207.177 202.782C206.712 203.354 206.083 203.77 205.275 204.081C204.45 204.383 203.527 204.53 202.514 204.53C201.208 204.53 200.154 204.391 199.272 204.081C198.406 203.778 197.704 203.288 197.206 202.684C196.716 202.08 196.438 201.402 196.422 200.61L196.397 200.585ZM212.902 199.54H217.786L216.267 196.322C215.834 195.367 215.483 194.542 215.254 193.913C215.034 194.673 214.805 195.416 214.478 196.118L212.902 199.54ZM208.811 204.301L214.266 192.713H216.34L222.188 204.301H220.007L218.366 200.789H212.347L210.779 204.301H208.811ZM161.542 133.586L160.856 131.479L178.872 126.383L179.599 128.522L176.691 129.355V131.982L222.133 149.362L228.876 151.381V183.517H233.662V185.69H133.922V183.517H144.613V171.332H138.39V168.024H144.34L144.147 165.853L144.327 165.73L154.698 160.707V149.2H149.594L163.878 144.209V132.98L161.534 133.594L161.542 133.586ZM218.535 149.358L212.992 151.096V183.517H209.056V151.381L201.37 149.08L184.588 136.853L218.535 149.358ZM193.163 151.096L198.796 149.332L176.691 133.901V144.872L188.37 149.2H182.53V159.371L183.167 159.074V164.807L193.163 159.034V151.096ZM192.984 159.826V168.024H144.992L144.833 166.187L154.698 161.392V167.143L182.53 167.036V165.854L192.984 159.826ZM164.743 132.753V143.907L166.197 143.399V132.359L165.65 132.516L164.743 132.753ZM167.079 132.107V143.091L168.843 142.474V131.602L167.079 132.107ZM169.692 131.359V142.278L171.318 142.88V130.893L169.692 131.359ZM172.2 130.641V143.207L173.645 143.743V130.227L172.2 130.641ZM174.535 129.972V144.073L175.826 144.551V129.603L174.535 129.972Z" fill="#292929"/>
<path d="M226.557 155.391H215.197V156.175H226.557V155.391ZM226.557 157.825H215.197V158.65H226.557V157.825ZM226.557 160.242H215.197V161.051H226.557V160.242ZM226.557 162.676H215.197V163.476H226.557V162.676ZM226.557 165.101H215.197V165.926H226.557V165.101ZM226.557 167.551H215.197V168.352H226.557V167.551ZM226.557 170.001H215.197V170.81H226.557V170.001ZM226.557 172.427H215.197V173.211H226.557V172.427ZM226.557 174.844H215.197V175.661H226.557V174.844ZM226.557 177.294H215.197V178.103H226.557V177.294ZM226.557 179.711H215.197V180.52H226.557V179.711Z" fill="#292929"/>
<path fill-rule="evenodd" clip-rule="evenodd" d="M72.3256 204.693C70.2204 210.514 67.3882 215.701 63.6983 220.751C62.496 220.822 61.2839 220.86 60.063 220.864V203.995C64.4386 204.021 68.4684 204.203 72.3256 204.693ZM60.063 201.953C64.6865 201.98 68.934 202.179 73.0036 202.72C74.6175 197.766 75.7407 192.338 76.4477 186.15C71.2412 185.429 65.7758 185.042 60.063 184.993V201.953ZM66.47 220.53C69.8745 215.642 72.5214 210.608 74.518 205.009C77.6342 205.513 80.6564 206.244 83.6803 207.286C79.5375 212.436 74.4972 216.837 68.6832 220.266C67.9498 220.366 67.2119 220.454 66.47 220.53ZM78.6227 186.474C77.9096 192.639 76.7868 198.072 75.1842 203.046C78.517 203.601 81.7517 204.412 85.0017 205.577C88.4948 200.876 91.274 195.605 93.2535 189.92C88.6458 188.44 83.7649 187.29 78.6227 186.474ZM93.893 187.98C89.1493 186.464 84.127 185.291 78.8383 184.462C79.2982 179.814 79.541 174.755 79.5945 169.177H96.778C96.7236 175.751 95.7313 182.073 93.893 187.98ZM96.7679 167.143H79.6056C79.6057 167.015 79.6058 166.888 79.6058 166.759C79.6058 161.838 79.43 157.271 79.0629 153.003C85.0247 151.994 89.9311 150.525 94.2748 148.784C95.8142 154.52 96.6578 160.665 96.7679 167.143ZM98.9749 169.177C98.92 175.99 97.8857 182.546 95.968 188.671C101.069 190.439 105.834 192.616 110.247 195.196C115.403 187.567 118.521 178.683 118.911 169.177H98.9749ZM118.953 167.143H98.965C98.8523 160.362 97.9539 153.931 96.3104 147.932C100.939 145.912 104.974 143.594 109.084 141.233L109.202 141.165C109.77 140.82 110.345 140.478 110.923 140.143C116.026 148.083 118.953 157.31 118.953 167.143ZM77.4006 167.143C77.4007 167.018 77.4008 166.893 77.4008 166.768C77.4008 161.905 77.245 157.453 76.9198 153.339C72.0598 154.041 66.5193 154.45 60.063 154.475V167.143H77.4006ZM77.3895 169.177H60.063V182.984C65.8444 183.032 71.3806 183.42 76.66 184.143C77.1033 179.594 77.3374 174.64 77.3895 169.177ZM57.8907 167.143V154.478C52.1249 154.428 46.7269 154.099 41.6816 153.488C41.2997 157.706 41.1082 162.134 41.1082 166.768C41.1082 166.893 41.1083 167.018 41.1087 167.143H57.8907ZM41.1303 169.177H57.8907V182.981C52.4093 183.018 47.2319 183.38 42.306 184.081C41.6211 179.29 41.2247 174.306 41.1303 169.177ZM38.92 167.143C38.9197 167.018 38.9195 166.893 38.9195 166.768C38.9195 162.039 39.118 157.517 39.5137 153.205C33.837 152.41 28.6224 151.243 23.8467 149.701C22.3759 155.223 21.5534 161.076 21.44 167.143H38.92ZM21.4294 169.177H38.9414C39.0369 174.417 39.4441 179.512 40.1489 184.412C34.7974 185.296 29.7424 186.594 24.9136 188.326C22.7046 182.227 21.4965 175.765 21.4294 169.177ZM19.2243 169.177C19.2918 176.03 20.5539 182.752 22.8647 189.092C18.2955 190.871 13.925 193.051 9.69145 195.647C4.34624 187.92 1.10718 178.874 0.708474 169.177H19.2243ZM19.2347 167.143C19.3501 160.83 20.2165 154.739 21.7677 148.996C16.4944 147.122 11.7821 144.763 7.59719 141.917C3.17467 149.442 0.666852 158.031 0.666748 167.143H19.2347ZM60.063 152.45C66.4965 152.426 71.9681 152.03 76.7459 151.34C76.1028 144.584 74.9713 138.756 73.2861 133.507C68.9591 134.279 64.5231 134.709 60.063 134.777V152.45ZM93.7185 146.83C89.4608 148.57 84.6972 150.016 78.8749 151.006C78.1967 144.386 77.0318 138.497 75.3189 133.118C78.9484 132.375 82.4905 131.39 85.8935 130.176C89.2692 135.184 91.8932 140.766 93.7185 146.83ZM84.7109 128.488C81.4965 129.625 78.1516 130.548 74.6926 131.244C72.4286 124.779 69.3263 119.046 65.272 113.641C66.7416 113.763 68.1959 113.935 69.6328 114.154C75.5936 118.07 80.6432 122.895 84.7109 128.488ZM60.063 132.785C64.3904 132.721 68.5944 132.328 72.6497 131.626C70.2599 124.912 66.9021 119.122 62.4286 113.466C61.6439 113.435 60.8553 113.418 60.063 113.416V132.785ZM74.0002 219.311C80.9199 217.762 87.3602 215.105 93.0809 211.559C90.6086 210.161 88.1986 209.012 85.8037 208.069C82.4378 212.341 78.4818 216.126 74.0002 219.311ZM87.0904 206.374C89.6931 207.427 92.3211 208.718 95.0321 210.297C100.508 206.6 105.256 202.064 109.047 196.9C104.805 194.422 100.226 192.325 95.3248 190.614C93.334 196.319 90.562 201.621 87.0904 206.374ZM95.7401 145.965C100.086 144.028 103.966 141.79 108.034 139.442C108.6 139.089 109.184 138.755 109.773 138.428C106.261 133.404 101.858 128.943 96.7683 125.23C93.9868 126.806 91.039 128.2 87.9648 129.402C91.295 134.409 93.901 139.959 95.7401 145.965ZM86.7984 127.712C89.6125 126.615 92.32 125.351 94.9094 123.928C88.9039 119.89 82.0322 116.859 74.6002 115.114C79.3203 118.738 83.3995 122.963 86.7984 127.712ZM55.9229 220.748C56.576 220.787 57.232 220.816 57.8907 220.835V203.998C54.4103 204.045 50.9356 204.333 47.539 204.844C49.7849 210.755 52.5933 216.105 55.9229 220.748ZM46.8267 202.897C50.4556 202.327 54.1714 202.006 57.8907 201.956V184.99C52.5147 185.027 47.438 185.385 42.6096 186.076C43.5714 192.03 44.986 197.668 46.8267 202.897ZM41.8805 151.47C46.8535 152.072 52.1844 152.395 57.8907 152.445V134.782C53.5625 134.742 49.3246 134.413 45.2695 133.816C43.6932 139.195 42.562 145.084 41.8805 151.47ZM45.8714 131.854C49.7584 132.427 53.8016 132.748 57.8907 132.789V113.444C56.9137 113.473 55.9426 113.523 54.9781 113.595C51.1594 118.749 48.12 124.846 45.8714 131.854ZM52.1859 113.862C48.6653 118.932 45.8378 124.825 43.7125 131.507C40.1249 130.882 36.693 130.04 33.5079 129.003C37.7378 123.116 42.9864 118.12 49.1053 114.3C50.1233 114.13 51.1504 113.984 52.1859 113.862ZM43.8136 115.415C39.0449 119.01 34.8791 123.347 31.3977 128.274C28.5507 127.232 25.9336 126.026 23.6192 124.675C29.5558 120.492 36.3905 117.312 43.8136 115.415ZM30.204 130.028C27.1382 128.874 24.3218 127.524 21.8229 125.992C16.6026 129.974 12.149 134.758 8.69391 140.134C12.7186 142.909 17.2513 145.205 22.329 147.032C24.1836 140.883 26.8369 135.162 30.204 130.028ZM43.115 133.47C41.5386 138.887 40.4037 144.798 39.715 151.187C34.1554 150.406 29.059 149.26 24.4 147.742C26.2381 141.585 28.8968 135.871 32.2878 130.769C35.6595 131.9 39.2957 132.807 43.115 133.47ZM25.6408 190.231C30.335 188.544 35.2505 187.276 40.4543 186.409C41.4196 192.363 42.8309 198.013 44.6618 203.268C41.2622 203.901 37.9555 204.753 34.8126 205.805C30.9798 201.075 27.8852 195.82 25.6408 190.231ZM36.2162 207.476C39.1425 206.535 42.211 205.773 45.3619 205.204C47.4738 210.833 50.0818 215.979 53.1516 220.524C52.7124 220.479 52.2746 220.429 51.8384 220.375C45.8603 216.898 40.6038 212.515 36.2162 207.476ZM23.5955 190.997C25.8382 196.567 28.8994 201.813 32.6764 206.56C29.8032 207.632 27.0882 208.876 24.5902 210.277C19.2687 206.685 14.633 202.301 10.8958 197.318C14.9758 194.821 19.1899 192.719 23.5955 190.997ZM34.0414 208.218C31.3876 209.176 28.8701 210.286 26.5368 211.537C32.5297 215.252 39.3114 217.994 46.6041 219.511C41.8764 216.276 37.6623 212.466 34.0414 208.218Z" fill="#292929"/>
</g>
<defs>
<clipPath id="clip0_233_725">
<rect width="240.615" height="275" fill="white" transform="translate(0.666748)"/>
</clipPath>
</defs>
</svg>
