<svg width="256" height="251" viewBox="0 0 256 251" fill="none" xmlns="http://www.w3.org/2000/svg">
<path d="M116.133 0.5V92.3292ZM119.468 92.3367H112.815V0.505571H119.468V92.3367ZM139.951 0.546429V56.772ZM143.285 56.772H136.625V0.544572H143.285V56.772ZM210.135 28.9071L143.628 93.8521ZM145.263 95.4567L141.964 92.2438L208.472 27.2951L211.784 30.534L145.263 95.4604V95.4567ZM226.931 45.4062L186.236 85.1494ZM187.878 86.7652L184.592 83.5393L225.275 43.7867L228.592 47.0126L187.88 86.7633L187.878 86.7652ZM255.998 113.911H161.961ZM256 117.161H161.962V110.648H256V117.161ZM255.959 137.169H198.387ZM255.959 140.426H198.387V133.926H255.959V140.426ZM226.913 205.69L160.41 140.753ZM222.664 209.847L156.165 144.894L164.652 136.611L231.154 201.549L222.664 209.847ZM210.019 222.115L169.333 182.353ZM205.78 226.249L165.078 186.495L173.554 178.212L214.263 217.955L205.78 226.249ZM139.864 250.5V158.663ZM147.201 250.498H132.543V158.661H147.201V250.498ZM116.028 250.455V194.232ZM123.367 250.455H108.723V194.232H123.367V250.455ZM45.8857 222.078L112.385 157.142ZM52.0021 228.058L39.7452 216.079L106.25 151.147L118.516 163.126L52.004 228.06L52.0021 228.058ZM29.0723 205.605L69.7735 165.839ZM35.1942 211.579L22.9466 199.61L63.6552 159.859L75.8935 171.819L35.1924 211.581L35.1942 211.579ZM0 137.091H94.0525ZM94.0525 144.27H0V129.907H94.0525V144.27ZM0.0372721 113.82H57.6302ZM57.6321 121H0.0409994V106.637H57.6321V121ZM29.1002 45.317L95.5844 110.229ZM91.354 114.387L24.8605 49.4492L33.3306 41.1663L99.839 106.106L91.354 114.387ZM45.9808 28.8904L86.682 68.643ZM82.4497 72.7863L41.7373 33.0301L50.2168 24.7434L90.944 64.4978L82.4497 72.7863ZM116.133 0.5V92.3292Z" fill="#292929"/>
</svg>
